**ABCDEFGHIJKLMNOPQRSTUVWXYZabcdefghijklmnopqrstuvwxyz**************************
**PARASOLID !"#$%&'()*+,-./:;<=>?@[\]^_`{|}~0123456789**************************
**PART1;
MC=x64/Windows NT;
MC_MODEL=genuineintel family 6 model 10 stepping 5, intel(r) xeon(r) cpu           w3550  @ 3.07ghz;
MC_ID=pc1401;
OS=windows nt (x64);
OS_RELEASE=6.1 windows 7 professional (build 7601) service pack 1;
FRU=mdc_ugii_v7.0_djl_can_vrh;
APPL=unigraphics;
SITE=unknown;
USER=HUGE;
FORMAT=text;
GUISE=transmit;
KEY=26-A_flange_a;
FILE=D:\Daten-Huge\PLM_Export\A_Internet_Modelle\Getriebe\26-x\26-A\26-A_flange_a.x_t;
DATE=13-sep-2016;
**PART2;
SCH=SCH_2701211_26105;
USFLD_SIZE=0;
**PART3;
**END_OF_HEADER*****************************************************************
T51 : TRANSMIT FILE created by modeller version 270121123 SCH_2701211_26105_1300
6200 0 12 30 CCCCCCCCCCCCCDI5 owner1040 0 CCCCCCCCCA13 boundary_mesh1006 0 A16 i
ndex_map_offset0 0 1 dA9 index_map82 0 A17 node_id_index_map82 0 A20 schema_embe
dding_map82 0 A5 child12 0 A14 lowest_node_id0 0 1 dZ1 988 2 3 0 0 0 0 1e3 1e-8
 0 0 0 1 0 1 1 4 5 6 7 8 9 10 0 0 0 0 0 0 0 81 255 1 2 988 11 1 12 0 0 0 13 70 1
1 CI9 list_type0 0 1 uI10 notransmit0 0 1 lCCCDCCDI12 finger_index0 0 1 dI12 fin
ger_block1012 0 CZ3 0 4 T1 0 0 5 20 1 14 14 13 255 4 3 0 1 0 15 0 0 16 0 52 255
 5 854 0 17 18 0 0 -0 -542101086242752e-34 0 0 0 -1 .0037 .707106781186548 .7071
06781186548 -1 0 0 31 255 6 756 0 9 19 0 0 +0 -542101086242752e-34 2e-4 0 0 -1 -
1 0 0 .0035 29 255 7 729 0 10 20 0 .00492421028214085 .000867267604178971 .0038
 19 8 CCCCCCCA5 owner12 0 Z8 1 0 1 16 0 21 V0 16 255 9 753 22 ?23 0 24 6 0 0 1 1
8 255 10 726 0 25 0 26 7 ?1 17 255 25 0 27 28 29 10 30 31 0 32 +18 26 715 0 33 1
0 34 20 ?1 17 33 0 35 36 37 26 38 39 0 40 +18 34 701 0 41 26 42 43 ?1 29 20 718
 0 26 43 7 .003213180918168685 .00383085739582103 .0038 29 43 704 0 34 44 20 -.0
0321318091816868 .00383085739582103 .0038 29 44 693 0 42 45 43 -.004924210282140
85 .000867267604178974 .0038 18 42 690 0 46 34 47 44 ?1 29 45 679 0 47 48 44 -.0
01711029363972165 -.004698125 .0038 18 47 676 0 49 42 50 45 ?1 29 48 675 0 50 51
 45 .001711029363972165 -.004698125 .0038 18 50 672 0 52 47 53 48 ?1 29 51 656 0
 53 54 48 .003140532552836185 .003630021388997075 .004 18 53 654 0 55 50 56 51 ?
1 29 54 653 0 56 57 51 .00471395701557043 .000904770277669592 .004 18 56 651 0 3
0 53 58 54 ?1 29 57 650 0 58 59 54 .001573424462734245 -.00453479166666667 .004
 18 58 648 0 60 56 61 57 ?1 29 59 647 0 61 62 57 -.001573424462734245 -.00453479
166666667 .004 18 61 645 0 63 58 64 59 ?1 29 62 644 0 64 65 59 -.004713957015570
43 .000904770277669595 .004 18 64 642 0 66 61 67 62 ?1 29 65 641 0 67 68 62 -.00
314053255283618 .003630021388997075 .004 18 67 639 0 69 64 70 65 ?1 29 68 335 0
 70 71 65 .001711029363972165 -.004698125 .0025 18 70 292 0 72 67 73 68 ?1 29 71
 336 0 73 74 68 -.00171102936397217 -.004698125 .0025 18 73 293 0 75 70 76 71 ?1
 29 74 444 0 76 77 71 .003213180918168685 .00383085739582103 .0025 18 76 401 0 7
8 73 79 74 ?1 29 77 445 0 79 80 74 .00492421028214085 .000867267604178971 .0025
 18 79 402 0 28 76 81 77 ?1 29 80 546 0 81 82 77 -.00492421028214085 .0008672676
04178975 .0025 18 81 503 0 83 79 84 80 ?1 29 82 547 0 84 0 80 -.0032131809181686
8 .00383085739582103 .0025 18 84 501 0 85 81 0 82 ?1 17 85 0 86 83 41 84 37 87 0
 88 +15 255 86 530 0 89 90 91 17 83 0 86 89 85 81 88 92 0 93 +17 41 0 86 85 94 3
4 69 95 0 37 +17 37 0 35 33 96 34 85 87 0 38 -16 87 702 97 ?85 98 92 99 0 0 1 17
 88 0 100 101 102 84 83 92 0 96 -15 100 475 0 88 103 104 17 101 0 100 105 88 76
 96 106 0 0 -17 102 0 100 88 107 81 108 109 0 0 -16 92 491 110 ?83 87 111 112 0
 0 1 17 96 0 35 37 36 84 101 106 0 0 +15 35 479 0 37 113 0 17 36 0 35 96 33 76 4
0 114 0 101 -16 106 358 115 ?96 116 109 117 116 109 1 81 1 115 880 118 106 0 0 1
19 120 121 16 116 30 119 ?122 123 106 117 109 106 1 16 109 472 124 ?108 106 125
 117 106 116 1 31 117 33 0 116 126 127 0 +0 867361737988404e-33 .0025 0 0 1 1 0
 0 .005 31 126 148 0 128 129 117 0 +0 .0085 .0025 0 0 -1 -1 0 0 755e-6 31 127 63
 0 125 117 130 0 +0 -542101086242752e-34 .004 0 0 1 1 0 0 .0035 16 125 76 120 ?1
31 109 132 127 0 0 1 31 130 113 0 132 127 133 0 +0 .0085 0 0 0 -1 -1 0 0 755e-6
 16 132 126 134 ?135 125 128 130 0 0 1 31 133 159 0 136 130 137 0 +-.00736121593
216773 -.00425 0 0 0 -1 -1 0 0 755e-6 16 136 172 138 ?139 128 140 133 0 0 1 31 1
37 201 0 141 133 142 0 +.00736121593216773 -.00425 0 0 0 -1 -1 0 0 755e-6 16 141
 214 143 ?144 140 145 137 0 0 1 31 142 247 0 146 137 147 0 +0 -.006 0 0 0 -1 -1
 0 0 .0011 16 146 285 148 ?149 150 151 142 0 0 1 30 255 147 261 0 123 142 152 0
 +-.001711029363972165 -.004698125 .00245 0 0 -1 16 123 677 153 ?75 154 116 147
 0 0 1 30 152 264 0 154 147 155 0 -.001711029363972165 -.004698125 .00245 0 0 -1
 16 154 262 156 ?157 158 123 152 0 0 1 31 155 351 0 159 152 160 0 +.005196152422
70663 .003 0 0 0 -1 -1 0 0 .0011 16 159 394 161 ?162 163 164 155 0 0 1 30 160 36
8 0 158 155 165 0 +.00492421028214085 .000867267604178971 .00245 0 0 -1 16 158 7
27 166 ?28 114 154 160 0 0 1 30 165 373 0 114 160 167 0 -.003213180918168685 .00
383085739582103 .00245 0 0 -1 16 114 371 168 ?40 169 158 165 0 0 1 31 167 454 0
 111 165 170 0 +-.00519615242270663 .003 0 0 0 -1 -1 0 0 .0011 16 111 495 171 ?1
72 92 173 167 0 0 1 31 170 575 0 169 167 174 0 -0 0 3e-4 0 0 -1 -1 0 0 .013 16 1
69 572 175 ?176 177 114 170 0 0 1 31 174 581 0 177 170 178 0 -0 0 .0022 0 0 1 1
 0 0 .013 16 177 578 179 ?180 181 169 174 0 0 1 31 178 587 0 181 174 182 0 +0 0
 .0025 0 0 1 1 0 0 .0127 16 181 584 183 ?184 185 177 178 0 0 1 31 182 593 0 185
 178 186 0 +0 0 0 0 0 -1 -1 0 0 .0127 16 185 590 187 ?188 189 181 182 0 0 1 31 1
86 659 0 189 182 190 0 +0 867361737988404e-33 .004 0 0 1 1 0 0 .0048 16 189 657
 191 ?192 193 185 186 0 0 1 31 190 664 0 193 186 194 0 +0 867361737988404e-33 .0
04 0 0 1 1 0 0 .0048 16 193 662 195 ?196 197 189 190 0 0 1 31 194 669 0 197 190
 198 0 +0 867361737988404e-33 .004 0 0 1 1 0 0 .0048 16 197 667 199 ?200 201 193
 194 0 0 1 38 255 198 682 0 201 194 202 0 +18 203 204 205 206 16 201 680 207 ?60
 208 197 198 0 0 1 38 202 687 0 208 198 209 0 +210 203 211 212 213 52 18 836 0 2
14 215 5 216 +0 867361737988404e-33 .004 0 0 -1 .0048 .707106781186547 .70710678
1186548 -1 0 0 51 255 203 324 0 217 218 219 220 +0 -.006 .004 0 0 -1 .00215 -1 0
 0 40 255 2 204 0 1 2 1119964652485458e-20 .075688639999446 ??.00171102936397216
5 -.004698125 .0038 .00157342446273425 -.00453479166666667 .004 41 255 1 205 L.0
01711029363972165 -.004698125 .0038 41 1 206 L.00157342446273425 -.0045347916666
6667 .004 14 255 217 318 221 ?222 223 224 4 203 -0 0 222 223 21 50 255 218 325 0
 223 225 203 0 +0 -.006 9e-4 0 0 -1 -1 0 0 51 219 233 0 226 203 227 0 +.00736121
593216773 -.00425 .0025 0 0 -1 755e-6 .5 .866025403784438 0 141 255 220 198 228
 228 203 141 228 202 220 220 203 14 226 227 229 ?230 231 232 4 219 -0 0 230 231
 21 51 227 191 0 231 219 233 0 +-.00736121593216773 -.00425 .0025 0 0 -1 755e-6
 .5 -.866025403784439 0 14 231 185 234 ?226 235 236 4 227 -0 0 226 235 21 51 233
 145 0 235 227 237 0 +0 .0085 .0025 0 0 -1 755e-6 -1 0 0 14 235 139 238 ?231 239
 240 4 233 -0 0 231 239 21 51 237 95 0 239 233 241 0 +0 -542101086242752e-34 0 0
 0 1 .0035 1 0 0 14 239 89 242 ?235 243 244 4 237 -0 0 235 243 21 50 241 56 0 24
5 237 246 0 +0 867361737988404e-33 .004 0 0 1 1 0 0 14 245 42 247 ?243 248 249 4
 241 +0 0 243 248 21 51 246 54 0 243 241 250 0 +0 867361737988404e-33 .0025 0 0
 1 .005 1 0 0 14 243 48 251 ?239 245 252 4 246 +15 113 239 245 21 50 250 11 0 25
3 246 254 0 +0 0 0 0 0 -1 -1 0 0 14 253 9 255 ?248 103 256 4 250 +0 0 248 103 21
 50 254 17 0 103 250 257 0 +0 0 .0025 0 0 1 1 0 0 14 103 15 258 ?253 113 259 4 2
54 +0 0 253 113 21 51 257 18 0 248 254 260 0 +0 0 0 0 0 1 .013 1 0 0 14 248 2 26
1 ?245 253 262 4 257 +0 0 245 253 21 52 260 610 0 263 257 264 0 +0 0 .0022 0 0 -
1 .013 .707106781186548 .707106781186548 -1 0 0 14 263 603 265 ?266 90 267 4 260
 +0 0 266 90 21 52 264 623 0 266 260 210 0 +0 0 3e-4 0 0 1 .013 .707106781186548
 .707106781186548 1 0 0 14 266 616 268 ?269 263 270 4 264 +0 0 269 263 21 52 210
 794 0 269 264 215 271 +0 867361737988404e-33 .004 0 0 -1 .0048 .707106781186547
 .707106781186548 -1 0 0 14 269 782 272 ?273 266 274 4 210 +0 0 273 266 21 52 21
5 815 0 273 210 18 275 +0 867361737988404e-33 .004 0 0 -1 .0048 .707106781186547
 .707106781186548 -1 0 0 141 271 202 276 276 210 141 276 277 271 271 210 38 277
 712 0 278 279 280 0 +210 281 282 283 284 16 278 710 285 ?66 39 95 277 0 0 1 38
 279 707 0 95 209 277 0 +215 281 286 287 288 31 280 721 0 39 277 289 0 -0 867361
737988404e-33 .0038 0 0 1 1 0 0 .005 51 281 534 0 90 290 291 292 +-.005196152422
70663 .003 .004 0 0 -1 .00215 .5 .866025403784438 0 40 2 282 0 1 2 1119964652485
472e-20 .0756886399994463 ??-.00492421028214085 .000867267604178974 .0038 -.0047
1395701557043 .000904770277669595 .004 41 1 283 L-.00492421028214085 .0008672676
04178974 .0038 41 1 284 L-.00471395701557043 .000904770277669595 .004 14 90 528
 293 ?263 294 86 4 281 -0 0 263 294 21 50 290 535 0 294 295 281 0 +-.00519615242
270663 .003 9e-4 0 0 -1 .5 .866025403784438 0 51 291 435 0 222 281 296 0 +.00519
615242270663 .003 -.0179155732081244 0 0 -1 .0011 .5 -.866025403784439 0 141 292
 279 297 297 281 141 297 277 292 292 281 14 222 419 298 ?299 217 300 4 291 -0 0
 299 217 21 50 296 434 0 299 291 301 0 +.00519615242270663 .003 9e-4 0 0 -1 .5 -
.866025403784439 0 14 299 423 302 ?303 222 304 4 296 -0 0 303 222 21 51 301 433
 0 303 296 225 305 +.00519615242270663 .003 .004 0 0 -1 .00215 .5 -.866025403784
439 0 14 303 427 306 ?307 299 27 4 301 -0 0 307 299 21 51 225 326 0 230 301 218
 0 +0 -.006 -.0179155732081244 0 0 -1 .0011 -1 0 0 141 305 289 308 308 301 38 28
9 732 0 31 280 309 0 +18 301 310 311 312 141 308 309 305 305 301 38 309 737 0 31
3 289 314 0 +215 301 315 316 317 16 313 735 318 ?55 319 31 309 0 0 1 31 314 742
 0 319 309 19 0 -0 867361737988404e-33 .0038 0 0 1 1 0 0 .005 40 2 315 0 1 2 111
9964652485436e-20 .0756886399994462 ??.003213180918168685 .00383085739582103 .00
38 .003140532552836185 .003630021388997075 .004 41 1 316 L.003213180918168685 .0
0383085739582103 .0038 41 1 317 L.003140532552836185 .003630021388997075 .004 16
 319 740 320 ?52 24 313 314 0 0 1 31 19 750 0 24 314 6 0 -0 -542101086242752e-34
 0 0 0 -1 -1 0 0 .0037 16 24 747 321 ?322 9 319 19 0 0 1 81 1 321 916 118 24 0 0
 199 318 323 17 322 0 256 322 322 0 324 24 0 0 +15 256 748 0 322 253 325 17 324
 0 326 324 324 0 322 24 0 0 -15 326 849 0 324 17 0 14 17 847 327 ?0 214 328 4 5
 +0 0 0 214 21 81 1 327 987 329 17 330 0 331 0 332 14 214 824 331 ?17 273 333 4
 18 +0 0 17 273 21 15 328 848 0 334 17 326 13 21 4 0 0 0 0 0 0 8 15 14 15 480 33
5 ?113 0 336 4 246 +113 243 113 0 21 81 1 335 962 329 15 337 0 0 338 339 14 113
 369 338 ?103 15 35 4 246 +243 15 103 15 21 15 336 483 0 340 15 0 17 340 0 336 4
6 108 47 75 123 0 341 -17 46 0 336 93 340 42 341 342 0 89 +17 108 0 336 340 93 7
3 102 109 0 107 +17 75 0 224 72 49 73 340 123 0 108 +17 341 0 274 63 343 47 46 3
42 0 0 -15 274 783 0 343 269 0 17 63 0 274 344 341 61 49 208 0 200 -17 343 0 274
 341 344 42 66 278 0 0 -16 342 694 345 ?46 95 208 209 0 0 1 81 1 345 912 118 342
 0 0 346 347 348 16 95 705 347 ?41 278 342 279 0 0 1 16 208 685 349 ?49 342 201
 202 0 0 1 31 209 696 0 342 202 279 0 -0 867361737988404e-33 .0038 0 0 1 1 0 0 .
005 81 1 349 908 118 208 0 0 207 22 350 17 49 0 224 75 351 47 63 208 0 340 +15 2
24 320 0 351 217 352 17 351 0 224 49 60 61 353 354 0 0 -17 60 0 224 351 157 58 3
55 201 0 353 +17 353 0 249 192 200 58 351 354 0 356 +16 354 646 357 ?353 358 163
 359 0 0 1 81 1 357 887 118 354 0 0 153 360 361 16 358 288 362 ?363 151 354 364
 0 0 1 16 163 390 365 ?78 354 159 366 0 0 1 31 359 334 0 354 366 364 0 +0 -.006
 .004 0 0 -1 -1 0 0 .00215 31 366 439 0 163 367 359 0 +.00519615242270663 .003 .
0025 0 0 1 1 0 0 .00215 31 364 333 0 358 359 368 0 +0 -.006 9e-4 0 0 -1 -1 0 0 .
00215 31 368 332 0 151 364 369 0 +0 -.006 9e-4 0 0 -1 -1 0 0 .0011 16 151 287 37
0 ?371 146 358 368 0 0 1 31 369 330 0 150 368 372 0 +0 -.006 .0025 0 0 1 1 0 0 .
00215 16 150 281 360 ?72 145 146 369 0 0 1 31 372 236 0 145 369 129 0 +.00736121
593216773 -.00425 .0025 0 0 -1 .5 .866025403784438 0 755e-6 16 145 216 373 ?374
 141 150 372 0 0 1 31 129 194 0 140 372 126 0 +-.00736121593216773 -.00425 .0025
 0 0 -1 .5 -.866025403784439 0 755e-6 16 140 174 375 ?376 136 141 129 0 0 1 81 1
 375 877 118 140 0 0 143 124 377 17 376 0 378 376 376 0 379 140 0 0 +15 378 164
 0 376 103 380 17 379 0 381 379 379 0 376 140 0 0 -15 381 188 0 379 231 0 15 380
 118 0 382 103 0 17 382 0 380 382 382 0 383 128 0 0 +17 383 0 384 383 383 0 382
 128 0 0 -16 128 128 385 ?382 132 136 126 0 0 1 81 1 385 872 118 128 0 0 0 134 3
86 80 255 1 118 387 388 9000 1 1 1 1 1 1 1 1 0 FFFFTFTFFFFFFF3 81 1 134 873 118
 132 0 0 385 373 389 84 255 32 386 d841dfbb447e395410c181cc8c2401e881 1 373 874
 118 145 0 0 134 138 390 84 32 389 187505177f043f1a9174a15fc23b88c181 1 138 875
 118 136 0 0 373 143 391 84 32 390 c6c3419c8c4c0a75a7356167f84b9a6c81 1 143 876
 118 141 0 0 138 375 392 84 32 391 3bcb9719608b7c1254d7f57f25c3ad6984 32 392 d8f
033e782153370d7a475d303a1f55c79 255 15 388 UGS/ObjectState15 384 142 0 383 235 0
 81 1 124 878 118 109 0 0 375 119 393 84 32 377 4dc987f18eb7c20d2bf44b2744260c06
81 1 119 879 118 116 0 0 124 115 394 84 32 393 ccc0e0942e08ad49341b7f5baefc5ad58
4 32 394 1e71c65171430616f61a1fbc3872c45b17 374 0 104 374 374 0 395 145 0 0 +15
 104 206 0 374 103 378 17 395 0 396 395 395 0 374 145 0 0 -15 396 230 0 395 226
 0 81 1 360 888 118 150 0 0 357 365 397 17 72 0 224 157 75 70 107 150 0 398 +17
 157 0 224 60 72 50 398 154 0 355 +17 107 0 100 102 399 73 72 150 0 0 -17 398 0
 252 122 52 70 157 154 0 399 -15 252 367 0 32 243 0 17 122 0 252 32 398 79 399 1
16 0 0 +17 52 0 252 398 32 50 400 319 0 157 +17 399 0 100 107 105 70 122 116 0 0
 -17 105 0 100 399 101 79 78 163 0 122 -17 78 0 27 40 28 76 105 163 0 36 +15 27
 429 0 40 303 401 17 40 0 27 55 78 26 36 114 0 402 +17 28 0 27 78 25 79 32 158 0
 105 +17 32 0 252 52 122 10 28 158 0 400 -17 400 0 333 30 355 10 52 319 0 0 -15
 333 825 0 355 214 0 17 30 0 333 356 400 56 25 31 0 192 -17 355 0 333 400 356 50
 60 201 0 0 -17 356 0 333 355 30 58 192 189 0 0 -17 192 0 249 403 353 56 356 189
 0 29 +15 249 464 0 404 245 405 17 403 0 249 196 192 53 29 406 0 407 +17 29 0 27
 25 55 56 403 406 0 0 -17 55 0 27 29 40 53 402 313 0 403 +16 406 652 408 ?403 40
9 98 410 0 0 1 81 1 408 895 118 406 0 0 171 411 412 16 409 397 413 ?414 164 406
 415 0 0 1 16 98 492 416 ?89 406 87 417 0 0 1 31 410 443 0 406 417 415 0 +.00519
615242270663 .003 .004 0 0 -1 .5 -.866025403784439 0 .00215 30 417 539 0 98 99 4
10 0 --.00492421028214085 .000867267604178974 .00245 0 0 -1 31 415 442 0 409 410
 367 0 +.00519615242270663 .003 9e-4 0 0 -1 .5 -.866025403784439 0 .00215 31 367
 441 0 164 415 366 0 +.00519615242270663 .003 9e-4 0 0 -1 .5 -.866025403784439 0
 .0011 16 164 396 411 ?418 159 409 367 0 0 1 81 1 411 896 118 164 0 0 408 416 41
9 17 418 0 304 418 418 0 420 164 0 0 +15 304 425 0 418 299 421 17 420 0 422 420
 420 0 418 164 0 0 -15 422 422 0 420 222 0 15 421 426 0 423 299 0 17 423 0 421 4
23 423 0 414 409 0 0 -17 414 0 401 414 414 0 423 409 0 0 +15 401 430 0 414 303 0
 81 1 416 897 118 98 0 0 411 424 425 84 32 419 740b26ec0e275478c67123d83812c0658
1 1 424 898 118 426 0 0 416 166 427 84 32 425 6defd575688830ac28710ca34fd3034116
 426 640 424 ?404 428 0 429 0 0 1 81 1 166 899 118 158 0 0 424 168 430 84 32 427
 0e62717b6e96a92e998a1501fb78e6f081 1 168 900 118 114 0 0 166 161 431 84 32 430
 1daf80253a56b4bb6cece01829b7f16481 1 161 901 118 159 0 0 168 413 432 84 32 431
 6df0862fdbdf0cd4ea2bc2d3a127220481 1 413 902 118 409 0 0 161 175 433 84 32 432
 e8fadf9af4f51afbc9bb3a75acb08c5981 1 175 903 118 169 0 0 413 183 434 84 32 433
 e4bc9d0820a59ea61e83203c576251b581 1 183 904 118 181 0 0 175 179 435 84 32 434
 561441f0d4e6f0a1e69f2d756fb59bc981 1 179 905 118 177 0 0 183 187 436 84 32 435
 5dd99e1d3218c941b653a90e317b71fd81 1 187 906 118 185 0 0 179 207 437 84 32 436
 f9d0e7ac53660ad49519795bd76572d981 1 207 907 118 201 0 0 187 349 438 84 32 437
 105544c0fbce1926b411f9689a71ff1884 32 438 83340652ed1bdabfc233468c8d640f2a17 40
4 0 249 200 196 64 94 426 0 344 +16 428 498 439 ?440 173 426 441 0 0 1 31 429 54
5 0 426 0 441 0 +-.00519615242270663 .003 .004 0 0 -1 .5 .866025403784438 0 .002
15 31 441 544 0 428 429 442 0 +-.00519615242270663 .003 9e-4 0 0 -1 .5 .86602540
3784438 0 .00215 31 442 543 0 173 441 112 0 +-.00519615242270663 .003 9e-4 0 0 -
1 .5 .866025403784438 0 .0011 16 173 497 443 ?444 111 428 442 0 0 1 31 112 541 0
 92 442 99 0 +-.00519615242270663 .003 .0025 0 0 1 1 0 0 .00215 30 99 540 0 87 1
12 417 0 +-.00321318091816868 .00383085739582103 .00245 0 0 -1 81 1 443 893 118
 173 0 0 439 171 445 17 444 0 446 444 444 0 447 173 0 0 +15 446 526 0 444 294 44
8 17 447 0 449 447 447 0 444 173 0 0 -15 449 523 0 447 307 0 14 307 520 450 ?294
 303 451 4 295 -0 0 294 303 21 81 1 450 979 329 307 452 0 306 453 454 14 294 524
 453 ?90 307 446 4 290 -0 0 90 307 21 15 451 522 0 172 307 449 51 295 536 0 307
 0 290 0 +-.00519615242270663 .003 -.0179155732081244 0 0 -1 .0011 .5 .866025403
784438 0 17 172 0 451 172 172 0 455 111 0 0 +17 455 0 456 455 455 0 172 111 0 0
 -15 456 453 0 455 253 457 15 457 350 0 458 253 459 17 458 0 457 458 458 0 162 1
59 0 0 -15 459 246 0 460 253 461 17 460 0 459 460 460 0 149 146 0 0 -15 461 200
 0 462 253 463 17 462 0 461 462 462 0 144 141 0 0 -15 463 158 0 464 253 465 17 4
64 0 463 464 464 0 139 136 0 0 -15 465 112 0 466 253 0 17 466 0 465 466 466 0 13
5 132 0 0 -17 135 0 240 135 135 0 466 132 0 0 +15 240 141 0 135 235 384 17 139 0
 236 139 139 0 464 136 0 0 +15 236 187 0 139 231 381 17 144 0 232 144 144 0 462
 141 0 0 +15 232 229 0 144 226 396 17 149 0 467 149 149 0 460 146 0 0 +15 467 31
2 0 149 230 468 14 230 310 469 ?223 226 467 4 225 -0 0 223 226 21 15 468 313 0 4
70 230 0 17 470 0 468 470 470 0 371 151 0 0 -17 371 0 471 371 371 0 470 151 0 0
 +15 471 316 0 371 223 472 14 223 314 473 ?217 230 471 4 218 -0 0 217 230 21 15
 472 317 0 474 223 0 17 474 0 472 474 474 0 363 358 0 0 -17 363 0 352 363 363 0
 474 358 0 0 +15 352 321 0 363 217 0 81 1 473 974 329 223 475 0 469 221 476 80 1
 329 0 477 8001 0 0 0 0 3 5 0 0 0 FFFFTFTFFFFFFF2 81 1 475 931 118 223 0 473 478
 479 480 81 1 469 973 329 230 478 0 229 473 481 81 1 221 975 329 217 479 0 473 2
98 482 83 255 3 476 .6 .6 .6 81 1 479 932 118 217 0 221 475 483 484 81 1 298 976
 329 222 485 0 221 302 486 83 3 482 .6 .6 .6 81 1 485 939 118 222 0 298 487 488
 489 81 1 302 977 329 299 490 0 298 306 491 83 3 486 .6 .6 .6 81 1 490 936 118 2
99 0 302 452 492 493 81 1 306 978 329 303 494 0 302 450 495 83 3 491 .6 .6 .6 81
 1 494 934 118 303 0 306 483 452 496 83 3 495 .6 .6 .6 81 1 483 933 118 113 0 33
8 479 494 497 81 1 452 935 118 307 0 450 494 490 498 84 32 496 fb5bdb509cd222473
0d7259fddf1105d84 32 498 2718146248597524153d34cb4e3b5b8881 1 338 963 329 113 48
3 0 335 258 499 84 32 497 d2535239b8865ab5510ae2766d79357081 1 258 964 329 103 5
00 0 338 255 501 83 3 499 .6 .6 .6 81 1 500 921 118 103 0 258 502 503 504 81 1 2
55 965 329 253 503 0 258 261 505 83 3 501 .6 .6 .6 81 1 503 922 118 253 0 255 50
0 506 507 81 1 261 966 329 248 506 0 255 247 508 83 3 505 .6 .6 .6 81 1 506 923
 118 248 0 261 503 509 510 81 1 247 967 329 245 511 0 261 251 512 83 3 508 .6 .6
 .6 81 1 511 928 118 245 0 247 337 513 514 81 1 251 968 329 243 488 0 247 242 51
5 83 3 512 .6 .6 .6 81 1 488 940 118 243 0 251 485 516 517 81 1 242 969 329 239
 513 0 251 238 518 83 3 515 .6 .6 .6 81 1 513 929 118 239 0 242 511 478 519 81 1
 238 970 329 235 509 0 242 234 520 83 3 518 .6 .6 .6 81 1 509 924 118 235 0 238
 506 521 522 81 1 234 971 329 231 523 0 238 229 524 83 3 520 .6 .6 .6 81 1 523 9
26 118 231 0 234 521 337 525 81 1 229 972 329 226 521 0 234 469 526 83 3 524 .6
 .6 .6 81 1 521 925 118 226 0 229 509 523 527 83 3 526 .6 .6 .6 84 32 527 b71130
9016651e9876a58bafc8d7f19f81 1 337 927 118 15 0 335 523 511 528 84 32 525 7cd56c
168ce11bba079ffabc809e68a284 32 528 a474d729d523cd8f019c95a96d6effb284 32 522 34
b875b3840db7a18cd2eb962af61a7c81 1 478 930 118 230 0 469 513 475 529 84 32 519 8
1d355b223d9a1e21ecf29d6003a108084 32 529 23da12afac799627e8553bbd32373c3e81 1 51
6 941 118 263 0 265 488 530 531 84 32 517 24913bd2ad3d4100eb204b00cd31326381 1 2
65 982 329 263 516 0 293 268 532 81 1 530 942 118 266 0 268 516 330 533 84 32 53
1 894aa1a4a42945f10cdf1e6aa62fd30281 1 268 983 329 266 530 0 265 272 534 81 1 33
0 943 118 17 0 327 530 535 536 84 32 533 0f14a62270e4c1ebdd531584de4440ba81 1 53
5 944 118 214 0 331 330 537 538 84 32 536 97f70eef0a9d5417470f96e357db12ba81 1 3
31 986 329 214 535 0 539 327 540 81 1 537 945 118 273 0 539 535 541 542 84 32 53
8 f679a7c8aad9a83442cda21faf4bd0dc14 273 803 539 ?214 269 543 4 215 +0 0 214 269
 21 81 1 539 985 329 273 537 0 272 331 544 81 1 541 946 118 269 0 272 537 0 545
 84 32 542 6bd960e8ef6d0878b2366386fad7407e81 1 272 984 329 269 541 0 268 539 54
6 84 32 545 a1721e09f4866be9286dce3ab348aafc83 3 546 .6 .6 .6 83 3 544 .6 .6 .6
 15 543 804 0 402 273 0 17 402 0 543 38 407 26 55 313 0 0 -17 38 0 543 69 402 34
 33 39 0 0 -17 407 0 543 402 69 53 196 193 0 0 -17 69 0 543 407 38 67 41 95 0 19
6 -17 196 0 249 404 403 67 407 193 0 94 +17 94 0 86 41 66 67 404 426 0 0 -17 66
 0 86 94 89 64 343 278 0 404 +17 89 0 86 66 83 42 93 98 0 343 +17 93 0 336 108 4
6 81 89 98 0 102 -16 39 719 502 ?33 31 278 280 0 0 1 81 1 502 920 118 39 0 0 195
 500 547 16 31 730 346 ?25 313 39 289 0 0 1 81 1 346 911 118 31 0 0 320 345 548
 81 1 320 910 118 319 0 0 22 346 549 84 32 548 a6ed8b8be17310e6bf551490e3a7c1c18
1 1 22 909 118 9 0 0 349 320 550 84 32 549 b23ff1e8f0e8805bb86aca886e4ba72d84 32
 550 133814ae635a00d821d8ce2adcf65f0581 1 195 919 118 193 0 0 191 502 551 84 32
 547 844b1c6b7c987d93550b794f8ae97d1a81 1 191 918 118 189 0 0 318 195 552 84 32
 551 ccf20a8dd045ebeb44b275981f9e3e8681 1 318 917 118 313 0 0 321 191 553 84 32
 552 87c40b53da90ac41dd14173cf138bfdd84 32 553 b7d2696086eaaa3d8a6aa76cdddb7d868
3 3 540 .6 .6 .6 83 3 534 .6 .6 .6 81 1 293 981 329 90 492 0 453 265 554 83 3 53
2 .6 .6 .6 81 1 492 937 118 90 0 293 490 487 555 81 1 453 980 329 294 487 0 450
 293 556 83 3 554 .6 .6 .6 81 1 487 938 118 294 0 453 492 485 557 83 3 556 .6 .6
 .6 84 32 557 6e2598f30569ce6764023ae44d83858084 32 555 ee1385deb707273a4b0801a7
9b6caee384 32 514 326815b4098d1843c7380d4d8bc2dd1684 32 510 e87c9ecf73d7be568263
e400618881cb84 32 507 329fe728e8ab53e84f0ef0855d54189884 32 504 72e5cc36ad6277be
8be06b6699b1882c84 32 493 14179c273a6a78a873d7726077af36ed84 32 489 15315b89276e
9eeb425cf0302b73bd6384 32 484 78fdc6dbf272352c10712f5bde7e246783 3 481 .6 .6 .6
 84 32 480 d054288a1dc37fcc78cdda65a0a7a1d979 15 477 SDL/TYSA_COLOUR17 162 0 300
 162 162 0 458 159 0 0 +15 300 421 0 162 222 422 83 3 454 .6 .6 .6 15 448 527 0
 558 294 0 17 558 0 448 558 558 0 440 428 0 0 -17 440 0 91 440 440 0 558 428 0 0
 +15 91 531 0 440 90 0 81 1 439 892 118 428 0 0 110 443 559 81 1 171 894 118 111
 0 0 443 408 560 84 32 445 3249b834a840b4f29d6bf97a11f15c0884 32 560 94e42a49746
cbc2a6b4c981a6728154481 1 110 891 118 92 0 0 97 439 561 84 32 559 10e10b9b5b2f81
189cff409ce97b5b8381 1 97 890 118 87 0 0 365 110 562 84 32 561 0be920730f52378de
308103a0321e00981 1 365 889 118 163 0 0 360 97 563 84 32 562 5ab724fc9b9b6dc3c10
342a803ae853784 32 563 3d834856b14ee8878b247bc5f29792df17 200 0 249 353 404 61 3
44 197 0 351 +17 344 0 274 343 63 64 200 197 0 0 -84 32 412 1e1e561e140a4ec649b4
7360f1347bac15 405 62 0 564 245 0 17 564 0 405 564 564 0 131 125 0 0 -17 131 0 5
65 131 131 0 564 125 0 0 +15 565 91 0 131 239 0 84 32 397 f49b59db8979de356bcb8a
0cf56f63ac81 1 370 882 118 151 0 0 120 362 566 81 1 120 881 118 125 0 0 115 370
 567 81 1 362 883 118 358 0 0 370 156 568 84 32 566 e6dd9d39c879d7b868e7ea29a607
6dbb81 1 156 884 118 154 0 0 362 148 569 84 32 568 197bd8f40377a55ffd9787024d04a
e0881 1 148 885 118 146 0 0 156 153 570 84 32 569 a131dc77345b1b3a2831aa07a5860b
6081 1 153 886 118 123 0 0 148 357 571 84 32 570 362a218db56f05c8c9b0a29cb276e95
f84 32 571 c7f0e2b1750fc955ed8b3898b908eaee84 32 567 e4405a8f4ab20f9316130107c74
cdd0384 32 361 5ae9f98b047d3d272935c5540f85ac2284 32 350 d96d141043129ff4c202cae
467d0883f81 1 347 913 118 95 0 0 345 285 572 81 1 285 914 118 278 0 0 347 199 57
3 84 32 572 43c75e0773fcc5a4856b40fc8ecfab5681 1 199 915 118 197 0 0 285 321 574
 84 32 573 80fb471c9dd3850464d1ab8bcbbf94c284 32 574 88647694a6e94e81e7ede4bb689
f04ec84 32 348 c79f5fea93e8ed9eeaeeaa8d6276752d83 3 339 .6 .6 .6 17 334 0 328 33
4 334 0 23 9 0 0 -17 23 0 244 23 23 0 334 9 0 0 +15 244 754 0 23 239 565 83 3 33
2 .6 .6 .6 15 325 591 0 188 253 456 17 188 0 325 188 188 0 575 185 0 0 +17 575 0
 270 575 575 0 188 185 0 0 -15 270 617 0 575 266 576 15 576 618 0 577 266 0 17 5
77 0 576 577 577 0 176 169 0 0 -17 176 0 578 176 176 0 577 169 0 0 +15 578 573 0
 176 248 0 84 32 323 13d2ba07a4b36277cbeaaa645867a4ef40 2 310 0 1 2 111996465248
543e-19 .0756886399994461 ??.00471395701557043 .000904770277669592 .004 .0049242
1028214085 .000867267604178971 .0038 41 1 311 L.00471395701557043 .0009047702776
69592 .004 41 1 312 L.00492421028214085 .000867267604178971 .0038 40 2 286 0 1 2
 1119964652485446e-20 .0756886399994461 ??-.003140532552836185 .0036300213889970
75 .004 -.00321318091816868 .00383085739582103 .0038 41 1 287 L-.003140532552836
185 .003630021388997075 .004 41 1 288 L-.00321318091816868 .00383085739582103 .0
038 141 275 279 579 579 215 141 579 309 275 275 215 15 267 604 0 580 263 581 17
 580 0 267 580 580 0 184 181 0 0 -15 581 605 0 582 263 0 17 582 0 581 582 582 0
 180 177 0 0 -17 180 0 262 180 180 0 582 177 0 0 +15 262 579 0 180 248 578 17 18
4 0 259 184 184 0 580 181 0 0 +15 259 585 0 184 103 100 141 216 198 583 583 18 1
41 583 289 216 216 18 40 2 211 0 1 2 1119964652485476e-20 .0756886399994463 ??-.
001573424462734245 -.00453479166666667 .004 -.001711029363972165 -.004698125 .00
38 41 1 212 L-.001573424462734245 -.00453479166666667 .004 41 1 213 L-.001711029
363972165 -.004698125 .0038 84 32 121 5a24091ff90d88e7023e5d6053afb27519 16 5 0
 1 0 8 4 S0 74 4 CI16 index_map_offset0 0 1 dCCZ20 14 5 0 0 584 541 12 327 2 0 0
 0 0 0 0 0 0 0 0 0 0 0 0 0 81 2 584 871 585 1 0 12 0 0 586 587 81 1 12 954 588 1
 584 2 0 0 589 80 1 588 590 591 9000 0 0 0 0 3 5 0 0 0 FFTFFFFFFFFFFF1 82 255 1
 589 -1 79 19 591 UG2/PMARK_ATTRIBUTE80 2 585 592 593 8004 0 0 0 0 3 5 0 0 0 FFT
FFFFFFFFFFF2 3 83 1 586 7.787 84 8 587 Kg/Cu M 79 16 593 SDL/TYSA_DENSITY80 1 11
 594 595 9000 0 0 0 0 3 5 0 0 0 FFTFFFFFFFFFFF1 82 1 13 87 79 24 595 UG2/BODY_CO
LOR_ATTRIBUTE1 0 
